<svg xmlns="http://www.w3.org/2000/svg" version="1.1" xmlns:xlink="http://www.w3.org/1999/xlink" xmlns:svgjs="http://svgjs.com/svgjs" width="1440" height="1080" preserveAspectRatio="none" viewBox="0 0 1440 1080">
    <g mask="url(&quot;#SvgjsMask1135&quot;)" fill="none">
        <rect width="1440" height="1080" x="0" y="0" fill="rgba(0, 8, 20, 1)"></rect>
        <path d="M671.657,883.551C722.417,884.674,758.814,839.496,782.466,794.57C804.246,753.2,809.722,704.853,787.35,663.8C764.003,620.958,720.438,592.225,671.657,591.235C621.155,590.21,570.72,614.056,547.532,658.931C525.774,701.04,546.105,748.361,569.03,789.846C593.044,833.301,622.02,882.452,671.657,883.551" fill="rgba(0, 29, 61, 0.3)" class="triangle-float2"></path>
        <path d="M398.38995546799686 844.9506395469951L574.1830167508749 851.0894685183033 580.3218457221831 675.2964072354252 404.52878443930496 669.1575782641171z" fill="rgba(0, 29, 61, 0.3)" class="triangle-float1"></path>
        <path d="M798.74,501.168C841.559,503.198,881.935,476.522,900.756,438.008C917.781,403.169,901.481,364.566,881.833,331.136C862.544,298.317,836.806,264.81,798.74,264.431C760.222,264.048,730.656,295.357,712.735,329.454C696.177,360.957,696.27,397.247,712.208,429.068C730.229,465.047,758.545,499.262,798.74,501.168" fill="rgba(0, 29, 61, 0.3)" class="triangle-float3"></path>
        <path d="M833.9558212335584 748.9528149870326L699.4012693671704 1013.0309920435434 963.4794464236811 1147.5855439099314 1098.0339982900691 883.5073668534206z" fill="rgba(0, 29, 61, 0.3)" class="triangle-float2"></path>
        <path d="M453.80094807213493 1150.6663855838851L429.51662815164053 977.8744708929079 256.7247134606632 1002.1587908134023 281.0090333811577 1174.9507055043796z" fill="rgba(0, 29, 61, 0.3)" class="triangle-float3"></path>
        <path d="M1552.8121761699701 775.0486714357901L1364.8855429749565 745.2840168151234 1335.12088835429 933.210650010137 1523.0475215493034 962.9753046308036z" fill="rgba(0, 29, 61, 0.3)" class="triangle-float3"></path>
        <path d="M505.645,495.874C550.724,494.936,583.895,460.329,608.246,422.381C635.488,379.928,664.673,329.541,640.944,285.029C616.391,238.97,557.795,227.742,505.645,229.914C457.731,231.91,411.985,253.7,388.552,295.541C365.604,336.515,371.673,386.267,395.371,426.811C418.829,466.944,459.169,496.841,505.645,495.874" fill="rgba(0, 29, 61, 0.3)" class="triangle-float3"></path>
        <path d="M1298.592,537.591C1347.311,538.295,1395.265,518.565,1420.812,477.075C1447.579,433.603,1448.845,378.708,1423.821,334.21C1398.306,288.84,1350.524,256.217,1298.592,259.745C1251.014,262.977,1222.506,307.536,1199.733,349.435C1178.337,388.8,1161.499,433.967,1182.338,473.63C1204.387,515.595,1251.192,536.906,1298.592,537.591" fill="rgba(0, 29, 61, 0.3)" class="triangle-float1"></path>
        <path d="M1436.9746131201082 498.2195622928381L1326.2379540970032 429.0236179364663 1277.812367073998 629.7265786493095z" fill="rgba(0, 29, 61, 0.3)" class="triangle-float3"></path>
    </g>
    <defs>
        <mask id="SvgjsMask1135">
            <rect width="1440" height="1080" fill="#ffffff"></rect>
        </mask>
        <style>
            @keyframes float1 {
                0%{transform: translate(0, 0)}
                50%{transform: translate(-10px, 0)}
                100%{transform: translate(0, 0)}
            }

            .triangle-float1 {
                animation: float1 5s infinite;
            }

            @keyframes float2 {
                0%{transform: translate(0, 0)}
                50%{transform: translate(-5px, -5px)}
                100%{transform: translate(0, 0)}
            }

            .triangle-float2 {
                animation: float2 4s infinite;
            }

            @keyframes float3 {
                0%{transform: translate(0, 0)}
                50%{transform: translate(0, -10px)}
                100%{transform: translate(0, 0)}
            }

            .triangle-float3 {
                animation: float3 6s infinite;
            }
        </style>
    </defs>
</svg>